<svg id="Layer_1" data-name="Layer 1" xmlns="http://www.w3.org/2000/svg" viewBox="0 0 612 792"><defs><style>.cls-1{fill:#f4f1a3;}</style></defs><path class="cls-1" d="M303.41,389.78c-4.58-12,.57-26.77,10.85-34.23,9.83-7.14,24.18-7.36,30.12,4.55,4.66,9.35,6.33,25.42-7,28-5,1-9.85-1-13.61-4.33s-4.53-8.67.44-11.3c3.88-2.06,7.37,2.9,5.11,5.69.53.45,1.14,1,1.32,1.1a7.19,7.19,0,0,0,4.27,1.39c5.47-.21,5.64-5.45,4.89-9.63s-2-9.08-5.57-11.57c-4-2.8-10.09-.91-13.94,1.35-9.29,5.45-13.73,18.71-8.69,28.4,6.08,11.69,18.77,12.08,30.29,12.06a23.43,23.43,0,0,0,4.67-1.61,41.8,41.8,0,1,0-13.2,9.23,39.71,39.71,0,0,1-14.65-3.1A29,29,0,0,1,303.41,389.78Z"/><path class="cls-1" d="M206.35,294c-8.31-21.88,1-48.61,19.71-62.17,17.85-13,43.91-13.35,54.69,8.28,8.46,17,11.5,46.16-12.74,50.89-9.15,1.79-17.89-1.75-24.71-7.86s-8.23-15.74.78-20.52c7-3.75,13.39,5.27,9.28,10.34,1,.81,2.08,1.79,2.4,2,2.57,1.56,4.77,2.65,7.75,2.53,9.95-.39,10.25-9.89,8.89-17.49-1.32-7.34-3.61-16.49-10.12-21C255,233.85,244,237.29,237,241.39c-16.88,9.9-24.93,34-15.78,51.57,11,21.24,34.09,21.94,55,21.91a42.94,42.94,0,0,0,8.48-2.93,75.82,75.82,0,1,0-24,16.77c-9.09-.45-18-1.77-26.61-5.63A52.74,52.74,0,0,1,206.35,294Z"/><path class="cls-1" d="M155.82,372.09c-2.59-6.81.32-15.12,6.13-19.33,5.55-4,13.65-4.16,17,2.57,2.63,5.28,3.57,14.36-4,15.83a9,9,0,0,1-7.68-2.45c-2.11-1.89-2.56-4.89.24-6.38a2.24,2.24,0,0,1,2.89,3.22c.3.25.64.55.75.62a4.08,4.08,0,0,0,2.41.78c3.09-.12,3.18-3.07,2.76-5.44s-1.12-5.13-3.15-6.53c-2.28-1.58-5.69-.51-7.87.76-5.25,3.08-7.75,10.57-4.91,16,3.44,6.6,10.6,6.82,17.11,6.81a13.28,13.28,0,0,0,2.64-.91,23.66,23.66,0,1,0-7.46,5.21,22.26,22.26,0,0,1-8.27-1.75A16.4,16.4,0,0,1,155.82,372.09Z"/></svg>